<svg width="365" height="115" viewBox="0 0 365 115" fill="none" xmlns="http://www.w3.org/2000/svg">
<path d="M5.56381 65V17.8882H21.7494C25.2178 17.8882 28.3489 18.37 31.1429 19.3334C33.985 20.2486 36.2491 21.8142 37.9351 24.0301C39.6211 26.246 40.4641 29.2567 40.4641 33.0623C40.4641 36.7233 39.6211 39.734 37.9351 42.0944C36.2491 44.4548 34.0091 46.2131 31.2152 47.3692C28.4212 48.4772 25.3623 49.0311 22.0385 49.0311H16.1856V65H5.56381ZM16.1856 40.577H21.3882C27.1687 40.577 30.059 38.0721 30.059 33.0623C30.059 30.6055 29.2883 28.8713 27.7468 27.8597C26.2053 26.8481 23.9894 26.3423 21.0991 26.3423H16.1856V40.577ZM48.6077 65V17.8882H65.5882C68.912 17.8882 71.9468 18.3459 74.6926 19.2611C77.4384 20.1282 79.6302 21.6215 81.268 23.7411C82.9058 25.8606 83.7248 28.7991 83.7248 32.5565C83.7248 36.0248 82.954 38.891 81.4125 41.1551C79.9192 43.371 77.896 45.0329 75.3429 46.1408L86.037 65H74.1145L65.0824 48.0195H59.2295V65H48.6077ZM59.2295 39.5654H64.7211C67.515 39.5654 69.6346 38.9874 71.0797 37.8313C72.5731 36.627 73.3197 34.8687 73.3197 32.5565C73.3197 30.2442 72.5731 28.6305 71.0797 27.7152C69.6346 26.8 67.515 26.3423 64.7211 26.3423H59.2295V39.5654ZM112.07 65.8671C107.831 65.8671 104.098 64.8796 100.87 62.9045C97.6907 60.9295 95.1858 58.1115 93.3553 54.4504C91.573 50.7412 90.6818 46.3335 90.6818 41.2273C90.6818 36.073 91.573 31.7135 93.3553 28.1488C95.1858 24.5359 97.6907 21.7901 100.87 19.9114C104.098 17.9846 107.831 17.0211 112.07 17.0211C116.309 17.0211 120.018 17.9846 123.198 19.9114C126.425 21.7901 128.93 24.5359 130.712 28.1488C132.543 31.7616 133.458 36.1212 133.458 41.2273C133.458 46.3335 132.543 50.7412 130.712 54.4504C128.93 58.1115 126.425 60.9295 123.198 62.9045C120.018 64.8796 116.309 65.8671 112.07 65.8671ZM112.07 56.6904C115.297 56.6904 117.851 55.2934 119.729 52.4995C121.608 49.7055 122.547 45.9482 122.547 41.2273C122.547 36.5065 121.608 32.8214 119.729 30.172C117.851 27.5225 115.297 26.1978 112.07 26.1978C108.842 26.1978 106.289 27.5225 104.411 30.172C102.532 32.8214 101.593 36.5065 101.593 41.2273C101.593 45.9482 102.532 49.7055 104.411 52.4995C106.289 55.2934 108.842 56.6904 112.07 56.6904ZM185.713 65V17.8882H196.335V65H185.713ZM216.623 65V26.8481H203.689V17.8882H240.252V26.8481H227.318V65H216.623ZM247.598 65V17.8882H258.219V37.1809H258.508L272.526 17.8882H284.232L269.997 36.6751L286.833 65H275.2L263.711 45.1292L258.219 52.355V65H247.598ZM291.982 65V17.8882H321.463V26.8481H302.604V36.3139H318.645V45.2015H302.604V56.0401H322.186V65H291.982ZM339.661 65V48.2363L325.427 17.8882H336.843L341.034 28.7268C341.709 30.5092 342.359 32.2434 342.985 33.9294C343.611 35.5672 344.238 37.3014 344.864 39.1319H345.153C345.827 37.3014 346.502 35.5672 347.176 33.9294C347.85 32.2434 348.501 30.5092 349.127 28.7268L353.39 17.8882H364.518L350.283 48.2363V65H339.661Z" fill="#333333"/>
<circle cx="147.966" cy="91.3282" r="18.6717" stroke="#FFB400" stroke-width="9.92259"/>
<path d="M147.336 71.0684L147.336 18.0409" stroke="#FFB400" stroke-width="9.92259"/>
<path d="M144.329 22.959L177.404 22.959" stroke="#FFB400" stroke-width="9.92259"/>
<line x1="147.336" y1="42.0524" x2="174.397" y2="42.0524" stroke="#FFB400" stroke-width="9.92259"/>
</svg>
