<svg width="32" height="19" viewBox="0 0 32 19" fill="none" xmlns="http://www.w3.org/2000/svg">
<path d="M9 9.29431H9.01M16 9.29431H16.01M23 9.29431H23.01M10 9.29431C10 9.55953 9.89464 9.81388 9.70711 10.0014C9.51957 10.189 9.26522 10.2943 9 10.2943C8.73478 10.2943 8.48043 10.189 8.29289 10.0014C8.10536 9.81388 8 9.55953 8 9.29431C8 9.0291 8.10536 8.77474 8.29289 8.5872C8.48043 8.39967 8.73478 8.29431 9 8.29431C9.26522 8.29431 9.51957 8.39967 9.70711 8.5872C9.89464 8.77474 10 9.0291 10 9.29431ZM17 9.29431C17 9.55953 16.8946 9.81388 16.7071 10.0014C16.5196 10.189 16.2652 10.2943 16 10.2943C15.7348 10.2943 15.4804 10.189 15.2929 10.0014C15.1054 9.81388 15 9.55953 15 9.29431C15 9.0291 15.1054 8.77474 15.2929 8.5872C15.4804 8.39967 15.7348 8.29431 16 8.29431C16.2652 8.29431 16.5196 8.39967 16.7071 8.5872C16.8946 8.77474 17 9.0291 17 9.29431ZM24 9.29431C24 9.55953 23.8946 9.81388 23.7071 10.0014C23.5196 10.189 23.2652 10.2943 23 10.2943C22.7348 10.2943 22.4804 10.189 22.2929 10.0014C22.1054 9.81388 22 9.55953 22 9.29431C22 9.0291 22.1054 8.77474 22.2929 8.5872C22.4804 8.39967 22.7348 8.29431 23 8.29431C23.2652 8.29431 23.5196 8.39967 23.7071 8.5872C23.8946 8.77474 24 9.0291 24 9.29431Z" stroke="#333333" stroke-width="2" stroke-linecap="round" stroke-linejoin="round"/>
</svg>
