<svg width="26" height="26" viewBox="0 0 26 26" fill="none" xmlns="http://www.w3.org/2000/svg">
<path d="M10.0967 11.3158V18.8856M15.7741 11.3158V18.8856M1.58057 6.26916H24.2902M22.8709 6.26916L21.6403 21.5881C21.5893 22.2247 21.2689 22.8205 20.7434 23.2555C20.218 23.6904 19.5267 23.9323 18.8087 23.9322H7.06211C6.34412 23.9323 5.65279 23.6904 5.12737 23.2555C4.60195 22.8205 4.28148 22.2247 4.2305 21.5881L2.99992 6.26916H22.8709ZM17.1935 6.26916V2.48421C17.1935 2.1496 17.0439 1.8287 16.7777 1.59209C16.5116 1.35549 16.1506 1.22256 15.7741 1.22256H10.0967C9.72026 1.22256 9.35924 1.35549 9.09306 1.59209C8.82688 1.8287 8.67734 2.1496 8.67734 2.48421V6.26916H17.1935Z" stroke="#3F3F46" stroke-width="2.27097" stroke-linecap="round" stroke-linejoin="round"/>
</svg>
